<svg id="Camada_2" data-name="Camada 2" xmlns="http://www.w3.org/2000/svg" viewBox="0 0 500 500"><defs><style>.cls-1{fill:#003663;}.cls-2{fill:#005495;}.cls-3{fill:#d3d800;}</style></defs><rect class="cls-1" width="500" height="500"/><path class="cls-2" d="M224.22,500,122,397.76h0A195,195,0,0,1,54.5,250C54.5,142,142,54.5,250,54.5a195.17,195.17,0,0,1,155.45,76.95L500,226V500Z"/><path class="cls-3" d="M357,374.92,338,356s98-81,22-190c0,0-58-85-163-44,0,0-85,27-86,131,0,0-.66,112.3,123.17,134.15V341C168,327,166,270.12,166,270.12V215s1-15,15-14,21.6-.05,21.6-.05L203,161a14.42,14.42,0,0,1,13-11c11-1,13,10,13,10v41h31V160s3-11,14-10a14.42,14.42,0,0,1,13,11l.4,39.95S295,202,309,201s15,14,15,14v55.12S324,311,292,324c0,0-11,1-14-7a14.73,14.73,0,0,1,2-14s15-12,17-26V227H192v45s5,37,48,43h9s11,1,11,10v76s1,11.09-10,12c0,0-137.12,7.5-163.22-142.55a102,102,0,0,1-1.53-19.73c.68-30.43,11.23-112.68,102.05-152.88,0,0,99.45-41.3,176.57,33.41,0,0,35,27.51,47.59,87.11,0,0,16.16,77.16-36.43,138.59l22.34,21.47a194.7,194.7,0,0,0,48.12-126.91c.83-107.15-85.72-195.62-192.86-197-123.88-1.63-221.72,112-193.12,240.41,16.6,74.58,76.3,132.19,151.3,146.76,64.5,12.53,124.84-6.7,168.19-44.8C379,396.85,357,375,357,374.92Z"/></svg>